<mxfile host="app.diagrams.net" modified="2023-10-10T07:53:17.672Z" agent="Mozilla/5.0 (Macintosh; Intel Mac OS X 10_15_7) AppleWebKit/537.36 (KHTML, like Gecko) Chrome/117.0.0.0 Safari/537.36" etag="No3yOHNMNKdFp5n2PEwI" version="22.0.4" type="github">
  <diagram name="第 1 页" id="nG1DMKSM9QJ_ZLVEkAyw">
    <mxGraphModel dx="958" dy="654" grid="1" gridSize="10" guides="1" tooltips="1" connect="1" arrows="1" fold="1" page="1" pageScale="1" pageWidth="827" pageHeight="1169" math="0" shadow="0">
      <root>
        <mxCell id="0" />
        <mxCell id="1" parent="0" />
        <mxCell id="jcbVdVeeIO99n1DFLQ96-7" style="edgeStyle=orthogonalEdgeStyle;rounded=0;orthogonalLoop=1;jettySize=auto;html=1;" edge="1" parent="1" source="jcbVdVeeIO99n1DFLQ96-1" target="jcbVdVeeIO99n1DFLQ96-2">
          <mxGeometry relative="1" as="geometry" />
        </mxCell>
        <mxCell id="jcbVdVeeIO99n1DFLQ96-1" value="tcp_v4_do_rcv" style="rounded=1;whiteSpace=wrap;html=1;fontFamily=Verdana;" vertex="1" parent="1">
          <mxGeometry x="120" y="250" width="120" height="60" as="geometry" />
        </mxCell>
        <mxCell id="jcbVdVeeIO99n1DFLQ96-8" style="edgeStyle=orthogonalEdgeStyle;rounded=0;orthogonalLoop=1;jettySize=auto;html=1;entryX=0;entryY=0.5;entryDx=0;entryDy=0;" edge="1" parent="1" source="jcbVdVeeIO99n1DFLQ96-2" target="jcbVdVeeIO99n1DFLQ96-3">
          <mxGeometry relative="1" as="geometry" />
        </mxCell>
        <mxCell id="jcbVdVeeIO99n1DFLQ96-10" style="edgeStyle=orthogonalEdgeStyle;rounded=0;orthogonalLoop=1;jettySize=auto;html=1;entryX=0;entryY=0.5;entryDx=0;entryDy=0;" edge="1" parent="1" source="jcbVdVeeIO99n1DFLQ96-2" target="jcbVdVeeIO99n1DFLQ96-5">
          <mxGeometry relative="1" as="geometry" />
        </mxCell>
        <mxCell id="jcbVdVeeIO99n1DFLQ96-11" style="edgeStyle=orthogonalEdgeStyle;rounded=0;orthogonalLoop=1;jettySize=auto;html=1;entryX=0;entryY=0.5;entryDx=0;entryDy=0;" edge="1" parent="1" source="jcbVdVeeIO99n1DFLQ96-2" target="jcbVdVeeIO99n1DFLQ96-6">
          <mxGeometry relative="1" as="geometry" />
        </mxCell>
        <mxCell id="jcbVdVeeIO99n1DFLQ96-12" style="edgeStyle=orthogonalEdgeStyle;rounded=0;orthogonalLoop=1;jettySize=auto;html=1;" edge="1" parent="1" source="jcbVdVeeIO99n1DFLQ96-2" target="jcbVdVeeIO99n1DFLQ96-4">
          <mxGeometry relative="1" as="geometry" />
        </mxCell>
        <mxCell id="jcbVdVeeIO99n1DFLQ96-2" value="tcp_rcv_established" style="rounded=1;whiteSpace=wrap;html=1;fontFamily=Verdana;" vertex="1" parent="1">
          <mxGeometry x="280" y="250" width="160" height="60" as="geometry" />
        </mxCell>
        <mxCell id="jcbVdVeeIO99n1DFLQ96-3" value="tcp_mstamp_refresh" style="rounded=1;whiteSpace=wrap;html=1;fontFamily=Verdana;" vertex="1" parent="1">
          <mxGeometry x="510" y="140" width="160" height="60" as="geometry" />
        </mxCell>
        <mxCell id="jcbVdVeeIO99n1DFLQ96-4" value="tcp_queue_rcv" style="rounded=1;whiteSpace=wrap;html=1;fontFamily=Verdana;" vertex="1" parent="1">
          <mxGeometry x="510" y="220" width="160" height="60" as="geometry" />
        </mxCell>
        <mxCell id="jcbVdVeeIO99n1DFLQ96-5" value="tcp_rcv_rtt_measure_ts" style="rounded=1;whiteSpace=wrap;html=1;fontFamily=Verdana;" vertex="1" parent="1">
          <mxGeometry x="510" y="300" width="160" height="60" as="geometry" />
        </mxCell>
        <mxCell id="jcbVdVeeIO99n1DFLQ96-6" value="tcp_data_snd_check" style="rounded=1;whiteSpace=wrap;html=1;fontFamily=Verdana;" vertex="1" parent="1">
          <mxGeometry x="510" y="380" width="160" height="60" as="geometry" />
        </mxCell>
      </root>
    </mxGraphModel>
  </diagram>
</mxfile>
